<svg width="48" height="48" viewBox="0 0 48 48" fill="none" xmlns="http://www.w3.org/2000/svg">
<circle cx="24" cy="24" r="24" fill="#C7CFEF"/>
<rect x="9" y="13" width="31" height="21" fill="white"/>
<path d="M37.1818 36H11C9.93913 36 8.92172 35.5786 8.17157 34.8284C7.42143 34.0783 7 33.0609 7 32V16C7 14.9391 7.42143 13.9217 8.17157 13.1716C8.92172 12.4214 9.93913 12 11 12H37.1818C38.2427 12 39.2601 12.4214 40.0102 13.1716C40.7604 13.9217 41.1818 14.9391 41.1818 16V32C41.1818 33.0609 40.7604 34.0783 40.0102 34.8284C39.2601 35.5786 38.2427 36 37.1818 36ZM11 14.1818C10.5178 14.1818 10.0553 14.3734 9.71435 14.7144C9.37338 15.0553 9.18182 15.5178 9.18182 16V32C9.18182 32.4822 9.37338 32.9447 9.71435 33.2857C10.0553 33.6266 10.5178 33.8182 11 33.8182H37.1818C37.664 33.8182 38.1265 33.6266 38.4675 33.2857C38.8084 32.9447 39 32.4822 39 32V16C39 15.5178 38.8084 15.0553 38.4675 14.7144C38.1265 14.3734 37.664 14.1818 37.1818 14.1818H11Z" fill="#26374A" stroke="#26374A" stroke-width="0.7"/>
<path d="M24.0909 28.9745C23.5671 28.9755 23.0484 28.8732 22.5642 28.6736C22.08 28.4739 21.6399 28.1808 21.2691 27.8109L8.17816 14.72L9.63271 13.12L22.8254 26.3127C22.9943 26.482 23.195 26.6164 23.4159 26.708C23.6367 26.7997 23.8736 26.8469 24.1127 26.8469C24.3519 26.8469 24.5887 26.7997 24.8096 26.708C25.0304 26.6164 25.2311 26.482 25.4 26.3127L38.2145 13.4545L39.7563 14.9091L26.9127 27.7527C26.5467 28.1331 26.1088 28.437 25.6244 28.6467C25.14 28.8565 24.6187 28.9679 24.0909 28.9745Z" fill="#26374A" stroke="#26374A" stroke-width="0.7"/>
<path d="M9.66183 34.4145L8.83274 33.7018L8.06183 32.9164L17.9091 23.0836L19.4509 24.6255L9.66183 34.4145Z" fill="#26374A" stroke="#26374A" stroke-width="0.7"/>
<path d="M30.2459 23.0645L28.7031 24.6072L38.2066 34.1108L39.7494 32.568L30.2459 23.0645Z" fill="#26374A" stroke="#26374A" stroke-width="0.7"/>
</svg>
