<svg width="36" height="36" viewBox="0 0 36 36" fill="none" xmlns="http://www.w3.org/2000/svg">
<circle cx="18" cy="18" r="18" fill="#C7CFEF"/>
<rect x="6" y="10" width="24" height="16" fill="white"/>
<path d="M27.8864 27H8.25C7.45435 27 6.69129 26.6839 6.12868 26.1213C5.56607 25.5587 5.25 24.7956 5.25 24V12C5.25 11.2044 5.56607 10.4413 6.12868 9.87868C6.69129 9.31607 7.45435 9 8.25 9H27.8864C28.682 9 29.4451 9.31607 30.0077 9.87868C30.5703 10.4413 30.8864 11.2044 30.8864 12V24C30.8864 24.7956 30.5703 25.5587 30.0077 26.1213C29.4451 26.6839 28.682 27 27.8864 27ZM8.25 10.6364C7.88834 10.6364 7.54149 10.78 7.28576 11.0358C7.03003 11.2915 6.88636 11.6383 6.88636 12V24C6.88636 24.3617 7.03003 24.7085 7.28576 24.9642C7.54149 25.22 7.88834 25.3636 8.25 25.3636H27.8864C28.248 25.3636 28.5949 25.22 28.8506 24.9642C29.1063 24.7085 29.25 24.3617 29.25 24V12C29.25 11.6383 29.1063 11.2915 28.8506 11.0358C28.5949 10.78 28.248 10.6364 27.8864 10.6364H8.25Z" fill="#26374A" stroke="#26374A" stroke-width="0.5"/>
<path d="M18.0681 21.7309C17.6753 21.7316 17.2862 21.6549 16.9231 21.5052C16.56 21.3554 16.2299 21.1356 15.9518 20.8582L6.13361 11.04L7.22451 9.84L17.1191 19.7345C17.2457 19.8615 17.3962 19.9623 17.5619 20.031C17.7275 20.0998 17.9051 20.1352 18.0845 20.1352C18.2639 20.1352 18.4415 20.0998 18.6072 20.031C18.7728 19.9623 18.9233 19.8615 19.05 19.7345L28.6609 10.0909L29.8172 11.1818L20.1845 20.8145C19.91 21.0998 19.5816 21.3277 19.2183 21.4851C18.855 21.6424 18.464 21.7259 18.0681 21.7309Z" fill="#26374A" stroke="#26374A" stroke-width="0.5"/>
<path d="M7.24639 25.8109L6.62457 25.2764L6.04639 24.6873L13.4318 17.3127L14.5882 18.4691L7.24639 25.8109Z" fill="#26374A" stroke="#26374A" stroke-width="0.5"/>
<path d="M22.6844 17.2983L21.5273 18.4554L28.655 25.5831L29.8121 24.426L22.6844 17.2983Z" fill="#26374A" stroke="#26374A" stroke-width="0.5"/>
</svg>
