<svg width="36" height="37" viewBox="0 0 36 37" fill="none" xmlns="http://www.w3.org/2000/svg">
<circle cx="18" cy="18.25" r="18" fill="#F5F5F5"/>
<path d="M7.5 7.75C7.5 5.67893 9.17893 4 11.25 4H24C26.0711 4 27.75 5.67893 27.75 7.75V13.75C27.75 14.5784 27.0784 15.25 26.25 15.25H9C8.17157 15.25 7.5 14.5784 7.5 13.75V7.75Z" fill="#26374A"/>
<path d="M9.75 8.30765C9.75 7.06501 10.7574 6.05765 12 6.05765H23.25C24.4926 6.05765 25.5 7.06501 25.5 8.30765V12.4326C25.5 12.8469 25.1642 13.1826 24.75 13.1826H10.5C10.0858 13.1826 9.75 12.8469 9.75 12.4326V8.30765Z" fill="white"/>
<path d="M11.8171 29.5499C13.1787 31.5864 14.9969 32.5 17.8811 32.5C20.7653 32.5 22.5513 31.5875 23.9129 29.551C25.1162 27.8053 26.0028 25.3882 26.3195 22.9314C27.1745 23.5133 27.2935 23.7322 28.0218 24.9606C27.9584 25.0253 27.8951 25.09 27.8318 25.1869C27.2618 25.8658 27.0401 26.9325 27.5785 28.0963L28.6868 27.579C28.3701 26.9002 28.4651 26.3183 28.7501 25.9628C28.8768 25.8334 29.0351 25.7041 29.2251 25.6395C29.3834 25.5748 29.5734 25.5425 29.7317 25.5748C30.1751 25.6072 30.5867 25.9628 30.84 26.6739L31.98 26.2861C31.5683 25.0253 30.745 24.4434 29.8901 24.3464C29.6367 24.3141 29.3517 24.3141 29.0984 24.3788C28.2751 22.9241 26.491 21.2853 26.491 21.2853C26.491 20.2832 26.0345 19.0126 25.4962 18.3337C24.9578 17.6225 24.1979 17.17 23.3429 17.17H17.8647L12.3871 17.1689C11.5321 17.1689 10.7722 17.6215 10.2338 18.3327C9.69549 19.0116 9.23899 20.2822 9.23899 21.2842C9.23899 21.2842 7.45489 22.9231 6.63158 24.3777C6.37826 24.313 6.09327 24.313 5.83994 24.3454C4.98496 24.4424 4.16165 25.0243 3.75 26.285L4.88997 26.6728C5.14329 25.9617 5.55495 25.6061 5.99827 25.5738C6.1566 25.5414 6.34659 25.5738 6.50492 25.6385C6.69491 25.703 6.85325 25.8324 6.9799 25.9617C7.2649 26.3172 7.35989 26.8991 7.04324 27.578L8.15154 28.0953C8.68985 26.9314 8.4682 25.8647 7.89822 25.1858C7.83488 25.0889 7.77155 25.0243 7.70822 24.9596C8.43653 23.7312 8.55554 23.5122 9.41052 22.9304C9.72719 25.3872 10.6138 27.8042 11.8171 29.5499Z" fill="#26374A" stroke="#26374A" stroke-width="0.75"/>
<path d="M22.6099 28.4529C23.576 27.094 24.2114 25.3074 24.4657 23.3949C24.4911 23.1684 24.5674 21.9605 24.5674 21.7341C24.5674 20.954 24.3131 20.2494 23.881 19.721C23.4488 19.1673 22.8134 18.8151 22.127 18.8151H13.3316C12.6452 18.8151 12.0351 19.1673 11.6029 19.721C11.1708 20.2494 10.9166 20.954 10.9166 21.7341C10.9166 21.9605 10.9929 23.1684 11.0183 23.3949C11.2725 25.3074 11.908 27.094 12.874 28.4529C13.967 30.0382 15.4266 30.7494 17.742 30.7494C20.0573 30.7494 21.4915 30.0382 22.6099 28.4529Z" fill="white"/>
<path d="M20.5884 10.3355C20.5884 10.6973 20.2938 11.0229 19.8886 11.0229C19.5204 11.0229 19.189 10.6973 19.189 10.3355C19.189 9.72053 19.4467 9.17789 19.8519 8.77993C20.257 8.38199 20.8094 8.12875 21.4355 8.12875C22.0248 8.12875 22.6141 8.38199 23.0192 8.77993C23.4242 9.17789 23.6821 9.72053 23.6821 10.3355C23.6821 10.6973 23.3506 11.0229 22.9455 11.0229C22.5772 11.0229 22.2458 10.6973 22.2458 10.3355C22.2458 10.1185 22.1353 9.90142 21.9879 9.75671C21.8407 9.61201 21.6564 9.50347 21.4355 9.50347C21.2145 9.50347 20.9935 9.61201 20.8463 9.75671C20.6989 9.90142 20.5884 10.1185 20.5884 10.3355Z" fill="#26374A" stroke="#26374A" stroke-width="0.375"/>
<path d="M13.4363 10.3355C13.4363 10.6973 13.1049 11.0229 12.7365 11.0229C12.3315 11.0229 12 10.6973 12 10.3355C12 9.72053 12.2578 9.17789 12.6629 8.77993C13.068 8.38199 13.6204 8.12875 14.2466 8.12875C14.8727 8.12875 15.4251 8.38199 15.8302 8.77993C16.2354 9.17789 16.4931 9.72053 16.4931 10.3355C16.4931 10.6973 16.1617 11.0229 15.7934 11.0229C15.3882 11.0229 15.0568 10.6973 15.0568 10.3355C15.0568 10.1185 14.9832 9.90142 14.8358 9.75671C14.6886 9.61201 14.4676 9.50347 14.2466 9.50347C14.0256 9.50347 13.8047 9.61201 13.6573 9.75671C13.51 9.90142 13.4363 10.1185 13.4363 10.3355Z" fill="#26374A" stroke="#26374A" stroke-width="0.375"/>
<path d="M17.742 20.0496L17.0477 21.309C16.9805 21.4294 16.8323 21.4794 16.7051 21.4243L16.1172 21.1752L16.4428 23.251C16.4602 23.3644 16.3236 23.4335 16.2407 23.354L15.321 22.4637L15.1806 22.8743C15.1285 23.0254 14.9675 23.1128 14.8118 23.0742L13.8938 22.8451L14.1561 24.1152C14.1861 24.2608 14.1084 24.4075 13.9709 24.4642L13.7271 24.5626L15.5247 26.1464C15.6543 26.2613 15.7108 26.4361 15.6729 26.6046L15.5679 27.0767L17.0048 26.8537C17.1747 26.8317 17.3251 26.9658 17.3212 27.1351V29.1033H17.742H18.1707V27.1351C18.1675 26.9651 18.3179 26.8309 18.487 26.8537L19.9146 27.0767L19.8097 26.6046C19.7733 26.4369 19.8313 26.2613 19.9609 26.1464L21.757 24.5626L21.2771 24.3658L21.5903 22.8435L20.3975 23.1418L20.1646 22.4637L19.2449 23.354C19.1628 23.4343 19.0254 23.3644 19.0428 23.251L19.3683 21.1752L18.7805 21.4243C18.6525 21.4786 18.5043 21.4294 18.4379 21.309L17.742 20.0496Z" fill="#FA5466"/>
</svg>
