<svg width="24" height="24" viewBox="0 0 24 24" fill="none" xmlns="http://www.w3.org/2000/svg">
<circle cx="12" cy="12" r="12" fill="#C7CFEF"/>
<rect x="4" y="7" width="16" height="10" fill="white"/>
<path d="M18.5909 18H5.5C4.96957 18 4.46086 17.7893 4.08579 17.4142C3.71071 17.0391 3.5 16.5304 3.5 16V8C3.5 7.46957 3.71071 6.96086 4.08579 6.58579C4.46086 6.21071 4.96957 6 5.5 6H18.5909C19.1213 6 19.63 6.21071 20.0051 6.58579C20.3802 6.96086 20.5909 7.46957 20.5909 8V16C20.5909 16.5304 20.3802 17.0391 20.0051 17.4142C19.63 17.7893 19.1213 18 18.5909 18ZM5.5 7.09091C5.25889 7.09091 5.02766 7.18669 4.85718 7.35718C4.68669 7.52766 4.59091 7.75889 4.59091 8V16C4.59091 16.2411 4.68669 16.4723 4.85718 16.6428C5.02766 16.8133 5.25889 16.9091 5.5 16.9091H18.5909C18.832 16.9091 19.0632 16.8133 19.2337 16.6428C19.4042 16.4723 19.5 16.2411 19.5 16V8C19.5 7.75889 19.4042 7.52766 19.2337 7.35718C19.0632 7.18669 18.832 7.09091 18.5909 7.09091H5.5Z" fill="#26374A" stroke="#26374A" stroke-width="0.4"/>
<path d="M12.0455 14.4873C11.7836 14.4878 11.5242 14.4366 11.2821 14.3368C11.04 14.2369 10.82 14.0904 10.6346 13.9055L4.08911 7.36L4.81638 6.56L11.4127 13.1564C11.4972 13.241 11.5975 13.3082 11.708 13.354C11.8184 13.3998 11.9368 13.4234 12.0564 13.4234C12.176 13.4234 12.2944 13.3998 12.4048 13.354C12.5153 13.3082 12.6156 13.241 12.7 13.1564L19.1073 6.72727L19.8782 7.45454L13.4564 13.8764C13.2734 14.0666 13.0544 14.2185 12.8122 14.3234C12.57 14.4282 12.3094 14.484 12.0455 14.4873Z" fill="#26374A" stroke="#26374A" stroke-width="0.4"/>
<path d="M4.83088 17.2073L4.41634 16.8509L4.03088 16.4582L8.95452 11.5418L9.72543 12.3127L4.83088 17.2073Z" fill="#26374A" stroke="#26374A" stroke-width="0.4"/>
<path d="M15.123 11.5322L14.3516 12.3036L19.1033 17.0554L19.8747 16.284L15.123 11.5322Z" fill="#26374A" stroke="#26374A" stroke-width="0.4"/>
</svg>
