<svg width="24" height="25" viewBox="0 0 24 25" fill="none" xmlns="http://www.w3.org/2000/svg">
<circle cx="12" cy="12.5" r="12" fill="#F5F5F5"/>
<path d="M5 5.5C5 4.11929 6.11929 3 7.5 3H16C17.3807 3 18.5 4.11929 18.5 5.5V9.5C18.5 10.0523 18.0523 10.5 17.5 10.5H6C5.44772 10.5 5 10.0523 5 9.5V5.5Z" fill="#26374A"/>
<path d="M6.5 5.87177C6.5 5.04334 7.17157 4.37177 8 4.37177H15.5C16.3284 4.37177 17 5.04334 17 5.87177V8.62177C17 8.89791 16.7761 9.12177 16.5 9.12177H7C6.72386 9.12177 6.5 8.89791 6.5 8.62177V5.87177Z" fill="white"/>
<path d="M7.87809 20.0333C8.7858 21.391 9.99792 22 11.9207 22C13.8436 22 15.0342 21.3917 15.9419 20.034C16.7442 18.8702 17.3352 17.2588 17.5463 15.6209C18.1045 16.0008 18.1922 16.1487 18.6516 16.9238L18.6812 16.9738C18.639 17.0169 18.5967 17.06 18.5545 17.1246C18.1745 17.5772 18.0268 18.2883 18.3856 19.0642L19.1245 18.7194C18.9134 18.2668 18.9767 17.8789 19.1667 17.6419C19.2512 17.5556 19.3567 17.4694 19.4834 17.4263C19.5889 17.3832 19.7156 17.3617 19.8212 17.3832C20.1167 17.4048 20.3911 17.6419 20.56 18.1159L21.32 17.8574C21.0456 17.0169 20.4967 16.629 19.9267 16.5643C19.7578 16.5427 19.5678 16.5427 19.3989 16.5858C18.8501 15.6161 17.6607 14.5235 17.6607 14.5235C17.6607 13.8555 17.3563 13.0084 16.9975 12.5558C16.6386 12.0817 16.1319 11.78 15.5619 11.78H11.9098L8.25808 11.7793C7.68809 11.7793 7.18144 12.081 6.82252 12.5551C6.46366 13.0077 6.15933 13.8548 6.15933 14.5228C6.15933 14.5228 4.96993 15.6154 4.42106 16.5851C4.25217 16.542 4.06218 16.542 3.89329 16.5636C3.32331 16.6283 2.77444 17.0162 2.5 17.8567L3.25998 18.1152C3.42886 17.6412 3.7033 17.4041 3.99885 17.3825C4.1044 17.361 4.23106 17.3825 4.33661 17.4256C4.46328 17.4687 4.56883 17.5549 4.65327 17.6412C4.84326 17.8782 4.9066 18.2661 4.69549 18.7187L5.43436 19.0635C5.79324 18.2876 5.64547 17.5765 5.26548 17.1239C5.22325 17.0593 5.18103 17.0162 5.13881 16.9731C5.62435 16.1541 5.70369 16.0081 6.27368 15.6202C6.4848 17.2581 7.07585 18.8695 7.87809 20.0333Z" fill="#26374A" stroke="#26374A" stroke-width="0.5"/>
<path d="M15.0733 19.3019C15.7173 18.396 16.141 17.2049 16.3105 15.9299C16.3274 15.7789 16.3783 14.9737 16.3783 14.8227C16.3783 14.3027 16.2088 13.8329 15.9207 13.4806C15.6326 13.1115 15.2089 12.8767 14.7514 12.8767H8.88773C8.43017 12.8767 8.02345 13.1115 7.73532 13.4806C7.44724 13.8329 7.27777 14.3027 7.27777 14.8227C7.27777 14.9737 7.32861 15.7789 7.34556 15.9299C7.51504 17.2049 7.93868 18.396 8.58269 19.3019C9.31137 20.3588 10.2844 20.8329 11.828 20.8329C13.3716 20.8329 14.3277 20.3588 15.0733 19.3019Z" fill="white"/>
<path d="M13.7256 7.22369C13.7256 7.46487 13.5292 7.68194 13.2591 7.68194C13.0136 7.68194 12.7927 7.46487 12.7927 7.22369C12.7927 6.81369 12.9645 6.45192 13.2346 6.18662C13.5047 5.92132 13.873 5.7525 14.2903 5.7525C14.6832 5.7525 15.0761 5.92132 15.3461 6.18662C15.6162 6.45192 15.7881 6.81369 15.7881 7.22369C15.7881 7.46487 15.5671 7.68194 15.297 7.68194C15.0515 7.68194 14.8305 7.46487 14.8305 7.22369C14.8305 7.07899 14.7569 6.93428 14.6586 6.8378C14.5605 6.74134 14.4377 6.66898 14.2903 6.66898C14.143 6.66898 13.9957 6.74134 13.8975 6.8378C13.7993 6.93428 13.7256 7.07899 13.7256 7.22369Z" fill="#26374A" stroke="#26374A" stroke-width="0.25"/>
<path d="M8.95756 7.22369C8.95756 7.46487 8.73658 7.68194 8.49103 7.68194C8.22098 7.68194 8 7.46487 8 7.22369C8 6.81369 8.17189 6.45192 8.44195 6.18662C8.71201 5.92132 9.0803 5.7525 9.49774 5.7525C9.91512 5.7525 10.2834 5.92132 10.5535 6.18662C10.8236 6.45192 10.9954 6.81369 10.9954 7.22369C10.9954 7.46487 10.7744 7.68194 10.529 7.68194C10.2588 7.68194 10.0379 7.46487 10.0379 7.22369C10.0379 7.07899 9.98878 6.93428 9.89054 6.8378C9.79238 6.74134 9.64506 6.66898 9.49774 6.66898C9.35043 6.66898 9.20311 6.74134 9.10487 6.8378C9.00664 6.93428 8.95756 7.07899 8.95756 7.22369Z" fill="#26374A" stroke="#26374A" stroke-width="0.25"/>
<path d="M11.828 13.6998L11.3651 14.5393C11.3204 14.6196 11.2216 14.6529 11.1368 14.6162L10.7448 14.4501L10.9619 15.834C10.9735 15.9096 10.8824 15.9557 10.8271 15.9027L10.2141 15.3092L10.1204 15.5829C10.0857 15.6836 9.97834 15.7418 9.87458 15.7161L9.26253 15.5634L9.4374 16.4101C9.45741 16.5072 9.4056 16.605 9.31396 16.6428L9.15143 16.7084L10.3498 17.7643C10.4362 17.8409 10.4739 17.9574 10.4486 18.0697L10.3786 18.3844L11.3366 18.2358C11.4498 18.2211 11.5501 18.3106 11.5475 18.4234V19.7355H11.828H12.1138V18.4234C12.1117 18.31 12.212 18.2206 12.3247 18.2358L13.2764 18.3844L13.2065 18.0697C13.1822 17.9579 13.2209 17.8409 13.3073 17.7643L14.5047 16.7084L14.1847 16.5772L14.3936 15.5624L13.5984 15.7612L13.4431 15.3092L12.83 15.9027C12.7752 15.9562 12.6836 15.9096 12.6952 15.834L12.9123 14.4501L12.5203 14.6162C12.435 14.6524 12.3362 14.6196 12.292 14.5393L11.828 13.6998Z" fill="#FA5466"/>
</svg>
