<svg width="48" height="48" viewBox="0 0 48 48" fill="none" xmlns="http://www.w3.org/2000/svg">
<path d="M29.2023 24.9297L12.7558 26.7333C12.4885 26.7633 12.2364 26.8731 12.0323 27.0483C11.8282 27.2236 11.6816 27.4562 11.6115 27.7159L9.0461 37.3183C8.97867 37.5681 8.98532 37.8321 9.06525 38.0781C9.14519 38.3242 9.29495 38.5417 9.4963 38.7042C9.69766 38.8666 9.94191 38.967 10.1993 38.9932C10.4567 39.0193 10.7162 38.97 10.946 38.8513L37.6231 25.1878C37.8419 25.076 38.0255 24.9059 38.1538 24.6963C38.2821 24.4867 38.35 24.2457 38.35 24C38.35 23.7542 38.2821 23.5133 38.1538 23.3037C38.0255 23.0941 37.8419 22.924 37.6231 22.8121L10.946 9.14868C10.7162 9.02997 10.4567 8.98068 10.1993 9.0068C9.94191 9.03292 9.69766 9.13333 9.4963 9.2958C9.29495 9.45826 9.14519 9.67578 9.06525 9.92184C8.98532 10.1679 8.97867 10.4319 9.0461 10.6817L11.6115 20.284C11.6816 20.5438 11.8282 20.7764 12.0323 20.9516C12.2364 21.1269 12.4885 21.2366 12.7558 21.2667L29.2023 23.0702C29.4358 23.0893 29.6535 23.1956 29.8122 23.3678C29.971 23.5401 30.0591 23.7657 30.0591 24C30.0591 24.2342 29.971 24.4599 29.8122 24.6321C29.6535 24.8044 29.4358 24.9106 29.2023 24.9297Z" fill="#4F5B8B"/>
</svg>
